<svg id="visual" viewBox="0 0 900 600" width="900" height="600" xmlns="http://www.w3.org/2000/svg" xmlns:xlink="http://www.w3.org/1999/xlink" version="1.1"><g transform="translate(445.0458132798616 336.79722180343754)"><path d="M108.1 -217.5C116.2 -182.5 82.3 -105.3 94.2 -62C106 -18.7 163.5 -9.3 185.7 12.8C208 35 194.9 70 167.9 87C140.9 104.1 100 103.1 69.6 91.9C39.3 80.6 19.7 59.1 -10.5 77.3C-40.7 95.4 -81.3 153.4 -114.1 166C-146.9 178.7 -171.7 146.1 -167.6 110.9C-163.4 75.7 -130.2 37.8 -136.4 -3.6C-142.6 -45 -188.2 -90 -187.1 -116.1C-186.1 -142.3 -138.3 -149.5 -99.3 -166.7C-60.3 -183.8 -30.2 -210.9 9.9 -228.1C50 -245.3 100 -252.5 108.1 -217.5" fill="#ff9100"></path></g></svg>