<svg id="visual" viewBox="0 0 900 600" width="900" height="600" xmlns="http://www.w3.org/2000/svg" xmlns:xlink="http://www.w3.org/1999/xlink" version="1.1"><g transform="translate(860.5635019764669 575.6910685859447)"><path d="M37.1 -87.3C44.9 -59.8 45.8 -43.4 87.7 -30.7C129.5 -18 212.3 -9 247 20.1C281.8 49.2 268.7 98.3 241.2 135.9C213.7 173.4 171.8 199.3 129.2 180.9C86.7 162.6 43.3 100.1 -3.3 105.8C-50 111.6 -100 185.7 -134.9 199.6C-169.9 213.5 -189.7 167.3 -189.1 124C-188.4 80.7 -167.2 40.3 -169.5 -1.3C-171.8 -43 -197.6 -86 -180.7 -98.8C-163.8 -111.7 -104.1 -94.4 -66.9 -104.9C-29.7 -115.4 -14.8 -153.7 -0.1 -153.5C14.7 -153.4 29.3 -114.8 37.1 -87.3" fill="#ff9100"></path></g></svg>