<svg id="eXq8Rj0sCtF1" xmlns="http://www.w3.org/2000/svg" xmlns:xlink="http://www.w3.org/1999/xlink" viewBox="0 0 900 600" shape-rendering="geometricPrecision" text-rendering="geometricPrecision"><g transform="translate(900 600)"><path d="M-270.4,0c2.6-15.9,5.2-31.7,16.3-44.8s30.8-23.3,46.4-30.8c15.7-7.4,27.3-12,23.2-30.9s-23.9-52-18.5-63.8c5.4-11.9,36.2-2.6,49.4-12.8c13.1-10.2,8.7-39.9,18.4-51.1s33.5-4,52.4,6.8c19,10.8,33,25.2,46,18.6c13-6.5,24.9-34.1,36.8-61.6L0,0h-270.4Z" fill="#ff9100"/></g><g><path d="M270.4,0c.8,17.1,1.6,34.2-13.4,45.3-14.9,11.1-45.6,16.1-51.2,29.6s14,35.3,19.4,55.1-3.4,37.5-23,39.7c-19.5,2.2-49.9-11.1-61.4-1.9-11.6,9.1-4.3,40.6-9.3,60s-22.1,26.7-39,26.3c-16.9-.3-33.5-8.4-48.9-6.9-15.4,1.4-29.5,12.3-43.6,23.2L0,0h270.4Z" fill="#ff9100"/></g></svg>
