<svg id="visual" viewBox="0 0 900 600" width="900" height="600" xmlns="http://www.w3.org/2000/svg" xmlns:xlink="http://www.w3.org/1999/xlink" version="1.1"><g transform="translate(1.2266071551018314 -9.246336539040897)"><path d="M40.2 -68.3C46.7 -65.8 42.8 -44.2 74.2 -29.6C105.6 -15 172.3 -7.5 181.8 5.5C191.4 18.5 143.8 37 128.6 79.7C113.4 122.4 130.7 189.4 114.7 212.3C98.7 235.2 49.3 214.1 20.3 179C-8.8 144 -17.7 94.9 -56.5 85.2C-95.3 75.4 -164.1 105 -170.4 97.3C-176.6 89.7 -120.3 44.8 -117.9 1.4C-115.4 -42 -166.8 -84 -181.2 -127.3C-195.5 -170.6 -172.7 -215.2 -136.4 -200.5C-100 -185.7 -50 -111.6 -16.6 -82.9C16.8 -54.2 33.7 -70.8 40.2 -68.3" fill="#ff9100"></path></g></svg>