<svg id="eyIpFz1WvVc1" xmlns="http://www.w3.org/2000/svg" xmlns:xlink="http://www.w3.org/1999/xlink" viewBox="0 0 325 100" shape-rendering="geometricPrecision" text-rendering="geometricPrecision"><defs><linearGradient id="eyIpFz1WvVc4-fill" x1="0.5" y1="0" x2="0.5" y2="1" spreadMethod="pad" gradientUnits="objectBoundingBox" gradientTransform="translate(0 0)"><stop id="eyIpFz1WvVc4-fill-0" offset="45%" stop-color="#ff9100"/><stop id="eyIpFz1WvVc4-fill-1" offset="100%" stop-color="#ff9100"/></linearGradient><linearGradient id="eyIpFz1WvVc5-fill" x1="0.5" y1="0" x2="0.5" y2="1" spreadMethod="pad" gradientUnits="objectBoundingBox" gradientTransform="translate(0 0)"><stop id="eyIpFz1WvVc5-fill-0" offset="45%" stop-color="#ff9100"/><stop id="eyIpFz1WvVc5-fill-1" offset="100%" stop-color="#ff9100"/></linearGradient><linearGradient id="eyIpFz1WvVc6-fill" x1="0.5" y1="0" x2="0.5" y2="1" spreadMethod="pad" gradientUnits="objectBoundingBox" gradientTransform="translate(0 0)"><stop id="eyIpFz1WvVc6-fill-0" offset="45%" stop-color="#ff9100"/><stop id="eyIpFz1WvVc6-fill-1" offset="100%" stop-color="#ff9100"/></linearGradient><linearGradient id="eyIpFz1WvVc7-fill" x1="0.5" y1="0" x2="0.5" y2="1" spreadMethod="pad" gradientUnits="objectBoundingBox" gradientTransform="translate(0 0)"><stop id="eyIpFz1WvVc7-fill-0" offset="45%" stop-color="#ff9100"/><stop id="eyIpFz1WvVc7-fill-1" offset="100%" stop-color="#ff9100"/></linearGradient><linearGradient id="eyIpFz1WvVc8-fill" x1="0.5" y1="0" x2="0.5" y2="1" spreadMethod="pad" gradientUnits="objectBoundingBox" gradientTransform="translate(0 0)"><stop id="eyIpFz1WvVc8-fill-0" offset="45%" stop-color="#ff9100"/><stop id="eyIpFz1WvVc8-fill-1" offset="100%" stop-color="#ff9100"/></linearGradient><linearGradient id="eyIpFz1WvVc9-fill" x1="0.5" y1="0" x2="0.5" y2="1" spreadMethod="pad" gradientUnits="objectBoundingBox" gradientTransform="translate(0 0)"><stop id="eyIpFz1WvVc9-fill-0" offset="45%" stop-color="#ff9100"/><stop id="eyIpFz1WvVc9-fill-1" offset="100%" stop-color="#ff9100"/></linearGradient></defs><g transform="translate(0 3.952239)"><path d="M0,40L0,0h325v40l-29.546225.014014v-2.786637c-.181238-2.887219-1.90601-7.224064-2.429636-7.301039-.370376-1.03234-1.883994-2.63948-3.394758-3.811807-1.36213-1.056991-2.782764-1.784139-3.2-1.86c0,0-1.743996-1.193486-6.401187-1.222241-2.321248.034262-4.858887.946175-5.878545,1.576577-1.698096.611744-4.397226,2.984434-5.47662,4.729764-1.273904,1.404051-2.704585,5.294025-2.764654,7.888746v2.772622L236.375,40.021003l-.012075-9.983646c.214319-2.552707-1.294622-6.838469-2.725722-8.752385-2.763855-3.462053-6.55963-6.276235-12.046978-6.247615-4.270122-.252445-9.715564,2.774807-11.76086,5.970241-1.185264,1.348731-2.902396,4.744185-3.01184,9.029759l-.005025,9.99065-29.540745.006999v-8.504675c-.027433-3.961345-2.377093-8.342197-4.134844-9.97303-2.49762-2.90728-7.716658-4.833196-10.669098-4.545701-4.116377-.192631-8.635018,2.217496-11.002877,4.959814-1.695562,1.762921-3.828902,6.151195-3.738581,9.558917v8.504675l-29.538852-.035001-.052392-7.788252c-.079838-2.259647-1.853956-6.72087-3.380726-8.177308-1.855549-2.631218-6.6928-5.548546-11.34576-5.427195-3.185676-.207717-8.136725,1.756888-10.408225,4.3834-1.620813,1.602773-4.037715,5.115496-4.338786,9.500545l.025889,7.508813-29.625004-.000003v-18.992407c-.301351-4.833698-3.84034-10.246331-8.781026-12.304437-4.620792-2.198278-10.3992-.797305-11.51022-.184967-2.203051.851782-8.604569,4.582318-9.179895,12.476603l-.045933,19.005202L0,40Z" transform="translate(.000775-3.952239)" fill="#ff9100"/><rect width="29.5454" height="93.2403" rx="15" ry="15" fill="url(#eyIpFz1WvVc4-fill)"/><rect width="29.5454" height="72.0207" rx="15" ry="15" transform="translate(59.09085 0)" fill="url(#eyIpFz1WvVc5-fill)"/><rect width="29.5454" height="67.304" rx="15" ry="15" transform="translate(118.1817 0)" fill="url(#eyIpFz1WvVc6-fill)"/><rect width="29.5454" height="88.5043" rx="15" ry="15" transform="translate(177.272875 0)" fill="url(#eyIpFz1WvVc7-fill)"/><rect width="29.5454" height="93.8747" rx="15" ry="15" transform="translate(236.363725 0)" fill="url(#eyIpFz1WvVc8-fill)"/><rect width="29.5454" height="65.6963" rx="15" ry="15" transform="translate(295.454575 0)" fill="url(#eyIpFz1WvVc9-fill)"/></g></svg>
