<svg id="visual" viewBox="0 0 900 600" width="900" height="600" xmlns="http://www.w3.org/2000/svg" xmlns:xlink="http://www.w3.org/1999/xlink" version="1.1"><path d="M0 543L7.5 535.5C15 528 30 513 45 504C60 495 75 492 90 488.2C105 484.3 120 479.7 135 489C150 498.3 165 521.7 180 522.8C195 524 210 503 225 498.8C240 494.7 255 507.3 270 506.7C285 506 300 492 315 484.7C330 477.3 345 476.7 360 485.7C375 494.7 390 513.3 405 514.2C420 515 435 498 450 491C465 484 480 487 495 487C510 487 525 484 540 491.2C555 498.3 570 515.7 585 519.5C600 523.3 615 513.7 630 506.3C645 499 660 494 675 496.7C690 499.3 705 509.7 720 514.7C735 519.7 750 519.3 765 516.7C780 514 795 509 810 502.8C825 496.7 840 489.3 855 491.2C870 493 885 504 892.5 509.5L900 515L900 601L892.5 601C885 601 870 601 855 601C840 601 825 601 810 601C795 601 780 601 765 601C750 601 735 601 720 601C705 601 690 601 675 601C660 601 645 601 630 601C615 601 600 601 585 601C570 601 555 601 540 601C525 601 510 601 495 601C480 601 465 601 450 601C435 601 420 601 405 601C390 601 375 601 360 601C345 601 330 601 315 601C300 601 285 601 270 601C255 601 240 601 225 601C210 601 195 601 180 601C165 601 150 601 135 601C120 601 105 601 90 601C75 601 60 601 45 601C30 601 15 601 7.5 601L0 601Z" fill="#005466" stroke-linecap="round" stroke-linejoin="miter"></path></svg>